v 0.75 0 0
v 0 0 0
v 0 21 0
v 0.75 21 0
v 0 21 40
v 0.75 21 40
v 0 0.00000000000000447586 40
v 0.75 0.00000000000000447586 40
v 25.999998 4 0
v 25.249998 4 0
v 25.249998 21 0
v 25.999998 21 0
v 25.249998 21 40
v 25.999998 21 40
v 25.249998 4 40
v 25.999998 4 40
v 0.75 4 3.5
v 0.75 4 2.75
v 25.249998 4 3.5
v 25.249998 4 2.75
v 25.249998 20.25 2.75
v 25.249998 20.25 3.5
v 0.75 20.25 3.5
v 0.75 20.25 2.75
v 0.75 4 18.5
v 0.75 4 18
v 25.249998 4 18.5
v 25.249998 4 18
v 25.249998 20.25 18
v 25.249998 20.25 18.5
v 0.75 20.25 18.5
v 0.75 20.25 18
v 0.75 4 33
v 0.75 4 32.5
v 25.249998 4 33
v 25.249998 4 32.5
v 25.249998 20.25 32.5
v 25.249998 20.25 33
v 0.75 20.25 33
v 0.75 20.25 32.5
v 0.75 4 40
v 0.75 4 39.25
v 25.249998 4 39.25
v 25.249998 8 39.25
v 25.249998 8 40
v 0.75 8 40
v 0.75 8 39.25
v 0.75 17 40
v 0.75 17 39.25
v 25.249998 17 40
v 25.249998 17 39.25
v 25.249998 21 39.25
v 0.75 21 39.25
v 0.75 21 2.75
v 25.249998 21 2.75
v 25.249998 20.25 40
v 0.75 20.25 40
v -3.5 0 42.5
v -3.5 0 40
v 53.499996 0 42.5
v 53.499996 0 40
v 53.499996 21 40
v 53.499996 21 42.5
v -3.5 21 42.5
v -3.5 21 40
v 0.75 3.5 38.5
v 0.75 4 38.5
v 50 3.5 38.5
v 50 4 38.5
v 50 3.5 40
v 50 4 40
v 0.75 3.5 40
v 25.249998 3.5 3.5
v 26.749998 3.5 3.5
v 26.749998 4 3.5
v 26.749998 3.5 38.5
v 26.749998 4 38.5
v 25.249998 3.5 38.5
v 25.249998 4 38.5
v 0.75 3.5 0
v 0.75 4 0
v 50 3.5 0
v 50 4 0
v 50 3.5 3.5
v 50 4 3.5
v 0.75 3.5 3.5
v 26.749998 4 0
v 26.749998 21 0
v 26.749998 21 40
v 26.749998 4 40
v 50.75 0 0
v 50 0 0
v 50 21 0
v 50.75 21 0
v 50 21 40
v 50.75 21 40
v 50 0.00000000000000447586 40
v 50.75 0.00000000000000447586 40
v 26.749998 4 2.75
v 50 4 2.75
v 50 20.25 2.75
v 50 20.25 3.5
v 26.749998 20.25 3.5
v 26.749998 20.25 2.75
v 26.749998 4 39.25
v 50 4 39.25
v 50 8 39.25
v 50 8 40
v 26.749998 8 40
v 26.749998 8 39.25
v 26.749998 17 40
v 26.749998 17 39.25
v 50 17 40
v 50 17 39.25
v 50 21 39.25
v 26.749998 21 39.25
v 26.749998 21 2.75
v 50 21 2.75
v 50 20.25 40
v 26.749998 20.25 40
vt 0.009525 0.2667
vt -0.009525 0.2667
vt -0.009525 -0.2667
vt 0.009525 -0.2667
vt 0.009525 0.508
vt -0.009525 0.508
vt -0.009525 -0.508
vt 0.009525 -0.508
vt 1.016 -0.00000000000000011368684
vt 1.016 -0.5334
vt 0 0
vt 0 -0.5334
vt 0.009525 0.2159
vt -0.009525 0.2159
vt -0.009525 -0.2159
vt 0.009525 -0.2159
vt 1.016 -0.1016
vt 0 -0.1016
vt -0.31115 0.009525
vt -0.31115 -0.009525
vt 0.31115 0.009525
vt 0.31115 -0.009525
vt 0.009525 0.206375
vt -0.009525 0.206375
vt -0.009525 -0.206375
vt 0.009525 -0.206375
vt 0.01905 0.51435
vt 0.64135 0.51435
vt 0.01905 0.1016
vt 0.64135 0.1016
vt -0.31115 0.00635
vt -0.31115 -0.00635
vt 0.31115 0.00635
vt 0.31115 -0.00635
vt 0.00635 0.206375
vt -0.00635 0.206375
vt -0.00635 -0.206375
vt 0.00635 -0.206375
vt 0.009525 0.0508
vt -0.009525 0.0508
vt -0.009525 -0.0508
vt 0.009525 -0.0508
vt 0.01905 0.2032
vt 0.64135 0.2032
vt 0.01905 0.5334
vt 0.64135 0.5334
vt 0.01905 0.4318
vt 0.64135 0.4318
vt -0.473075 0.009525
vt -0.473075 -0.009525
vt 0.473075 0.009525
vt 0.473075 -0.009525
vt 0.01905 1.016
vt 0.64135 1.016
vt 0.01905 0.06985
vt 0.64135 0.06985
vt -0.7239 0.03175
vt -0.7239 -0.03175
vt 0.7239 0.03175
vt 0.7239 -0.03175
vt 0.03175 0.2667
vt -0.03175 0.2667
vt -0.03175 -0.2667
vt 0.03175 -0.2667
vt -0.0889 0.5334
vt 1.3589 0.5334
vt -0.0889 0
vt 1.3589 0
vt -0.625475 0.00635
vt -0.625475 -0.00635
vt 0.625475 0.00635
vt 0.625475 -0.00635
vt -0.01905 0.00635
vt -0.01905 -0.00635
vt 0.01905 0.00635
vt 0.01905 -0.00635
vt 1.27 1.016
vt 0.01905 0.9779
vt 1.27 0.9779
vt -0.4445 0.00635
vt -0.4445 -0.00635
vt 0.4445 0.00635
vt 0.4445 -0.00635
vt 0.64135 0.9779
vt 0.67945 0.9779
vt 0.64135 0.0889
vt 0.67945 0.0889
vt -0.04445 0.00635
vt -0.04445 -0.00635
vt 0.04445 0.00635
vt 0.04445 -0.00635
vt 0.01905 0.0889
vt 1.27 0.0889
vt 0.01905 0
vt 1.27 0
vt -0.295275 0.009525
vt -0.295275 -0.009525
vt 0.295275 0.009525
vt 0.295275 -0.009525
vt 0.67945 0.51435
vt 1.27 0.51435
vt 0.67945 0.1016
vt 1.27 0.1016
vt 0.67945 0.2032
vt 1.27 0.2032
vt 0.67945 0.5334
vt 1.27 0.5334
vt 0.67945 0.4318
vt 1.27 0.4318
vt 0.67945 1.016
vt 0.67945 0.06985
vt 1.27 0.06985
vn 0 -0 -1
vn 0 1 0
vn 0 -0 1
vn 0 -1 0
vn -1 0 -0
vn 1 -0 0
o Unnamed-0
f 1/1/1 2/2/1 3/3/1
f 4/4/1 1/1/1 3/3/1
f 4/5/2 3/6/2 5/7/2
f 6/8/2 4/5/2 5/7/2
f 6/1/3 5/2/3 7/3/3
f 8/4/3 6/1/3 7/3/3
f 8/5/4 7/6/4 2/7/4
f 1/8/4 8/5/4 2/7/4
f 7/9/5 5/10/5 2/11/5
f 5/10/5 3/12/5 2/11/5
f 8/9/6 1/11/6 6/10/6
f 6/10/6 1/11/6 4/12/6
o Unnamed-1
f 9/13/1 10/14/1 11/15/1
f 12/16/1 9/13/1 11/15/1
f 12/5/2 11/6/2 13/7/2
f 14/8/2 12/5/2 13/7/2
f 14/13/3 13/14/3 15/15/3
f 16/16/3 14/13/3 15/15/3
f 16/5/4 15/6/4 10/7/4
f 9/8/4 16/5/4 10/7/4
f 15/17/5 13/10/5 10/18/5
f 13/10/5 11/12/5 10/18/5
f 16/17/6 9/18/6 14/10/6
f 14/10/6 9/18/6 12/12/6
o Unnamed-2
f 17/19/4 18/20/4 19/21/4
f 19/21/4 18/20/4 20/22/4
f 19/23/6 20/24/6 21/25/6
f 22/26/6 19/23/6 21/25/6
f 22/22/2 21/21/2 23/20/2
f 23/20/2 21/21/2 24/19/2
f 23/23/5 24/24/5 18/25/5
f 17/26/5 23/23/5 18/25/5
f 24/27/1 21/28/1 18/29/1
f 21/28/1 20/30/1 18/29/1
f 23/27/3 17/29/3 22/28/3
f 22/28/3 17/29/3 19/30/3
o Unnamed-3
f 25/31/4 26/32/4 27/33/4
f 27/33/4 26/32/4 28/34/4
f 27/35/6 28/36/6 29/37/6
f 30/38/6 27/35/6 29/37/6
f 30/34/2 29/33/2 31/32/2
f 31/32/2 29/33/2 32/31/2
f 31/35/5 32/36/5 26/37/5
f 25/38/5 31/35/5 26/37/5
f 32/27/1 29/28/1 26/29/1
f 29/28/1 28/30/1 26/29/1
f 31/27/3 25/29/3 30/28/3
f 30/28/3 25/29/3 27/30/3
o Unnamed-4
f 33/31/4 34/32/4 35/33/4
f 35/33/4 34/32/4 36/34/4
f 35/35/6 36/36/6 37/37/6
f 38/38/6 35/35/6 37/37/6
f 38/34/2 37/33/2 39/32/2
f 39/32/2 37/33/2 40/31/2
f 39/35/5 40/36/5 34/37/5
f 33/38/5 39/35/5 34/37/5
f 40/27/1 37/28/1 34/29/1
f 37/28/1 36/30/1 34/29/1
f 39/27/3 33/29/3 38/28/3
f 38/28/3 33/29/3 35/30/3
o Unnamed-5
f 41/19/4 42/20/4 15/21/4
f 15/21/4 42/20/4 43/22/4
f 15/39/6 43/40/6 44/41/6
f 45/42/6 15/39/6 44/41/6
f 45/22/2 44/21/2 46/20/2
f 46/20/2 44/21/2 47/19/2
f 46/39/5 47/40/5 42/41/5
f 41/42/5 46/39/5 42/41/5
f 47/43/1 44/44/1 42/29/1
f 44/44/1 43/30/1 42/29/1
f 46/43/3 41/29/3 45/44/3
f 45/44/3 41/29/3 15/30/3
o Unnamed-6
f 48/19/4 49/20/4 50/21/4
f 50/21/4 49/20/4 51/22/4
f 50/39/6 51/40/6 52/41/6
f 13/42/6 50/39/6 52/41/6
f 13/22/2 52/21/2 6/20/2
f 6/20/2 52/21/2 53/19/2
f 6/39/5 53/40/5 49/41/5
f 48/42/5 6/39/5 49/41/5
f 53/45/1 52/46/1 49/47/1
f 52/46/1 51/48/1 49/47/1
f 6/45/3 48/47/3 13/46/3
f 13/46/3 48/47/3 50/48/3
o Unnamed-7
f 24/19/1 54/20/1 21/21/1
f 21/21/1 54/20/1 55/22/1
f 21/49/6 55/50/6 56/51/6
f 56/51/6 55/50/6 13/52/6
f 56/22/3 13/21/3 57/20/3
f 57/20/3 13/21/3 6/19/3
f 57/52/5 6/51/5 24/50/5
f 24/50/5 6/51/5 54/49/5
f 6/53/2 13/54/2 54/55/2
f 13/54/2 55/56/2 54/55/2
f 57/53/4 24/55/4 56/54/4
f 56/54/4 24/55/4 21/56/4
o Unnamed-8
f 58/57/4 59/58/4 60/59/4
f 60/59/4 59/58/4 61/60/4
f 60/61/6 61/62/6 62/63/6
f 63/64/6 60/61/6 62/63/6
f 63/60/2 62/59/2 64/58/2
f 64/58/2 62/59/2 65/57/2
f 64/61/5 65/62/5 59/63/5
f 58/64/5 64/61/5 59/63/5
f 65/65/1 62/66/1 59/67/1
f 62/66/1 61/68/1 59/67/1
f 64/65/3 58/67/3 63/66/3
f 63/66/3 58/67/3 60/68/3
o Unnamed-9
f 66/69/1 67/70/1 68/71/1
f 68/71/1 67/70/1 69/72/1
f 68/73/6 69/74/6 70/75/6
f 70/75/6 69/74/6 71/76/6
f 70/72/3 71/71/3 72/70/3
f 72/70/3 71/71/3 41/69/3
f 72/76/5 41/75/5 66/74/5
f 66/74/5 41/75/5 67/73/5
f 41/53/2 71/77/2 67/78/2
f 71/77/2 69/79/2 67/78/2
f 72/53/4 66/78/4 70/77/4
f 70/77/4 66/78/4 68/79/4
o Unnamed-10
f 73/73/1 19/74/1 74/75/1
f 74/75/1 19/74/1 75/76/1
f 74/80/6 75/81/6 76/82/6
f 76/82/6 75/81/6 77/83/6
f 76/76/3 77/75/3 78/74/3
f 78/74/3 77/75/3 79/73/3
f 78/83/5 79/82/5 73/81/5
f 73/81/5 79/82/5 19/80/5
f 79/84/2 77/85/2 19/86/2
f 77/85/2 75/87/2 19/86/2
f 78/84/4 73/86/4 76/85/4
f 76/85/4 73/86/4 74/87/4
o Unnamed-11
f 80/69/1 81/70/1 82/71/1
f 82/71/1 81/70/1 83/72/1
f 82/88/6 83/89/6 84/90/6
f 84/90/6 83/89/6 85/91/6
f 84/72/3 85/71/3 86/70/3
f 86/70/3 85/71/3 17/69/3
f 86/91/5 17/90/5 80/89/5
f 80/89/5 17/90/5 81/88/5
f 17/92/2 85/93/2 81/94/2
f 85/93/2 83/95/2 81/94/2
f 86/92/4 80/94/4 84/93/4
f 84/93/4 80/94/4 82/95/4
o Unnamed-12
f 87/13/1 9/14/1 12/15/1
f 88/16/1 87/13/1 12/15/1
f 88/5/2 12/6/2 14/7/2
f 89/8/2 88/5/2 14/7/2
f 89/13/3 14/14/3 16/15/3
f 90/16/3 89/13/3 16/15/3
f 90/5/4 16/6/4 9/7/4
f 87/8/4 90/5/4 9/7/4
f 16/17/5 14/10/5 9/18/5
f 14/10/5 12/12/5 9/18/5
f 90/17/6 87/18/6 89/10/6
f 89/10/6 87/18/6 88/12/6
o Unnamed-13
f 91/1/1 92/2/1 93/3/1
f 94/4/1 91/1/1 93/3/1
f 94/5/2 93/6/2 95/7/2
f 96/8/2 94/5/2 95/7/2
f 96/1/3 95/2/3 97/3/3
f 98/4/3 96/1/3 97/3/3
f 98/5/4 97/6/4 92/7/4
f 91/8/4 98/5/4 92/7/4
f 97/9/5 95/10/5 92/11/5
f 95/10/5 93/12/5 92/11/5
f 98/9/6 91/11/6 96/10/6
f 96/10/6 91/11/6 94/12/6
o Unnamed-14
f 75/96/4 99/97/4 85/98/4
f 85/98/4 99/97/4 100/99/4
f 85/23/6 100/24/6 101/25/6
f 102/26/6 85/23/6 101/25/6
f 102/99/2 101/98/2 103/97/2
f 103/97/2 101/98/2 104/96/2
f 103/23/5 104/24/5 99/25/5
f 75/26/5 103/23/5 99/25/5
f 104/100/1 101/101/1 99/102/1
f 101/101/1 100/103/1 99/102/1
f 103/100/3 75/102/3 102/101/3
f 102/101/3 75/102/3 85/103/3
o Unnamed-15
f 90/96/4 105/97/4 71/98/4
f 71/98/4 105/97/4 106/99/4
f 71/39/6 106/40/6 107/41/6
f 108/42/6 71/39/6 107/41/6
f 108/99/2 107/98/2 109/97/2
f 109/97/2 107/98/2 110/96/2
f 109/39/5 110/40/5 105/41/5
f 90/42/5 109/39/5 105/41/5
f 110/104/1 107/105/1 105/102/1
f 107/105/1 106/103/1 105/102/1
f 109/104/3 90/102/3 108/105/3
f 108/105/3 90/102/3 71/103/3
o Unnamed-16
f 111/96/4 112/97/4 113/98/4
f 113/98/4 112/97/4 114/99/4
f 113/39/6 114/40/6 115/41/6
f 95/42/6 113/39/6 115/41/6
f 95/99/2 115/98/2 89/97/2
f 89/97/2 115/98/2 116/96/2
f 89/39/5 116/40/5 112/41/5
f 111/42/5 89/39/5 112/41/5
f 116/106/1 115/107/1 112/108/1
f 115/107/1 114/109/1 112/108/1
f 89/106/3 111/108/3 95/107/3
f 95/107/3 111/108/3 113/109/3
o Unnamed-17
f 104/96/1 117/97/1 101/98/1
f 101/98/1 117/97/1 118/99/1
f 101/49/6 118/50/6 119/51/6
f 119/51/6 118/50/6 95/52/6
f 119/99/3 95/98/3 120/97/3
f 120/97/3 95/98/3 89/96/3
f 120/52/5 89/51/5 104/50/5
f 104/50/5 89/51/5 117/49/5
f 89/110/2 95/77/2 117/111/2
f 95/77/2 118/112/2 117/111/2
f 120/110/4 104/111/4 119/77/4
f 119/77/4 104/111/4 101/112/4
